<svg height="630" viewBox="0 0 900 630.00003" width="900" xmlns="http://www.w3.org/2000/svg"><g transform="translate(0 -422.36216)"><rect fill="#f2f2f2" height="630" ry="32.436417" width="900" y="422.36221"/><circle cx="-368.79849" cy="770.521" fill="#333" r="19.766314" transform="matrix(.83292378 -.55338773 .55338773 .83292378 0 0)"/><text font-family="sans-serif" font-size="40" letter-spacing="0" word-spacing="0" x="166.48802" y="859.30676"><tspan x="166.48802" y="859.30676">successfully connected dots</tspan></text><circle cx="-404.95261" cy="823.33533" fill="#999" r="19.766314" transform="matrix(.83292378 -.55338773 .55338773 .83292378 0 0)"/><text font-family="sans-serif" font-size="40" letter-spacing="0" word-spacing="0" x="166.48802" y="923.61316"><tspan x="166.48802" y="923.61316">badly connected dots</tspan></text><circle cx="-438.16653" cy="873.32678" fill="none" r="19.766314" stroke="#000" transform="matrix(.83292378 -.55338773 .55338773 .83292378 0 0)"/><text font-family="sans-serif" font-size="40" letter-spacing="0" word-spacing="0" x="166.48802" y="983.63245"><tspan x="166.48802" y="983.63245">empty array fillers</tspan></text><rect fill="none" height="232.30769" ry="35" stroke="#000" width="803.0769" x="53.697556" y="791.01575"/><g transform="translate(13.697554 -687.50022)"><rect fill="#f2f2f2" height="64.615387" ry="32.307693" width="189.23076" x="70.769234" y="1441.593"/><text style="font-style:italic;font-size:40;font-family:sans-serif;letter-spacing:0;word-spacing:0;fill:#b3b3b3" x="98.46154" y="1490.8237"><tspan x="98.46154" y="1490.8237">legend</tspan></text></g><path d="m135.22727 459.18034 137.5 100" fill="none" stroke="#000"/><path d="m296.59091 478.49852-52.27273 162.50001" fill="none" stroke="#000"/><path d="m328.40909 643.27125h-169.31818" fill="none" stroke="#000"/><path d="m202.27273 508.04398-137.500003 102.27273" fill="none" stroke="#000"/><path d="m185.22727 721.68034-54.54545-161.36363" fill="none" stroke="#000"/><circle cx="135.47284" cy="460.38696" fill="#333" r="19.766314"/><circle cx="201.36057" cy="508.70499" fill="#333" r="19.766314"/><circle cx="269.98874" cy="557.90112" fill="#333" r="19.766314"/><circle cx="297.1174" cy="478.83585" fill="#333" r="19.766314"/><circle cx="243.52875" cy="639.60181" fill="#333" r="19.766314"/><circle cx="328.7435" cy="642.2373" fill="#333" r="19.766314"/><circle cx="131.95886" cy="561.41504" fill="#333" r="19.766314"/><circle cx="159.19246" cy="640.48035" fill="#333" r="19.766314"/><circle cx="185.54755" cy="721.30261" fill="#333" r="19.766314"/><circle cx="64.314133" cy="609.73267" fill="#333" r="19.766314"/><path d="m650 481.90762v161.36363" fill="none" stroke="#000"/><path d="m488.63636 562.58943h162.5" fill="none" stroke="#000"/><path d="m570.45455 722.81671v-160.22728" fill="none" stroke="#000"/><path d="m729.54545 642.13489h-160.22727" fill="none" stroke="#000"/><path d="m651.13636 643.27125 161.93182-161.93182" fill="none" stroke="#000"/><g transform="matrix(.83292377 -.55338775 .55338771 .83292379 0 0)"><circle cx="8.386324" cy="872.83264" fill="none" r="20" stroke="#000"/><circle cx="75.020218" cy="917.10364" fill="#333" r="20"/><circle cx="141.65413" cy="961.37463" fill="none" r="20" stroke="#000"/><circle cx="208.28804" cy="1005.6456" fill="none" r="20" stroke="#000"/><circle cx="274.92197" cy="1049.9166" fill="none" r="20" stroke="#000"/><circle cx="52.657349" cy="806.19873" fill="none" r="20" stroke="#000"/><circle cx="119.29124" cy="850.46973" fill="#333" r="20"/><circle cx="185.92516" cy="894.74072" fill="#333" r="20"/><circle cx="252.55907" cy="939.01172" fill="#333" r="20"/><circle cx="319.19299" cy="983.28278" fill="none" r="20" stroke="#000"/><circle cx="96.92836" cy="739.56482" fill="#333" r="20"/><circle cx="163.56227" cy="783.83582" fill="#333" r="20"/><circle cx="230.19618" cy="828.10681" fill="#333" r="20"/><circle cx="296.83011" cy="872.37781" fill="#999" r="20"/><circle cx="363.46402" cy="916.64886" fill="none" r="20" stroke="#000"/><circle cx="141.19936" cy="672.93091" fill="none" r="20" stroke="#000"/><circle cx="207.83327" cy="717.2019" fill="none" r="20" stroke="#000"/><circle cx="274.46719" cy="761.4729" fill="#333" r="20"/><circle cx="341.1011" cy="805.7439" fill="none" r="20" stroke="#000"/><circle cx="407.73502" cy="850.01495" fill="#999" r="20"/></g><text fill="#b3b3b3" font-family="sans-serif" font-size="40" letter-spacing="0" transform="rotate(-90)" word-spacing="0" x="-739.36145" y="457.63849"><tspan font-family="sans-serif" font-style="italic" x="-739.36145" y="457.63849">4x5</tspan></text></g></svg>