<svg height="630" viewBox="0 0 900 630.00003" width="900" xmlns="http://www.w3.org/2000/svg" xmlns:xlink="http://www.w3.org/1999/xlink"><marker id="a" orient="auto" overflow="visible" refX="0.0" refY="0.0"><path d="m0 0 5-5-17.5 5 17.5 5z" fill="#fff" fill-rule="evenodd" stroke="#fff" stroke-width="1pt" transform="matrix(-.8 0 0 -.8 -10 0)"/></marker><marker id="b" orient="auto" overflow="visible" refX="0.0" refY="0.0"><path d="m0 0 5-5-17.5 5 17.5 5z" fill="#fff" fill-rule="evenodd" stroke="#fff" stroke-width="1pt" transform="matrix(-.8 0 0 -.8 -10 0)"/></marker><marker id="c" orient="auto" overflow="visible" refX="0.0" refY="0.0"><path d="m0 0 5-5-17.5 5 17.5 5z" fill-rule="evenodd" stroke="#000" stroke-width="1pt" transform="matrix(-.8 0 0 -.8 -10 0)"/></marker><marker id="d" orient="auto" overflow="visible" refX="0.0" refY="0.0"><path d="m0 0 5-5-17.5 5 17.5 5z" fill-rule="evenodd" stroke="#000" stroke-width="1pt" transform="matrix(-.8 0 0 -.8 -10 0)"/></marker><marker id="e" orient="auto" overflow="visible" refX="0.0" refY="0.0"><path d="m0 0 5-5-17.5 5 17.5 5z" fill-rule="evenodd" stroke="#fff" stroke-width="1pt" transform="matrix(-.8 0 0 -.8 -10 0)"/></marker><marker id="f" orient="auto" overflow="visible" refX="0.0" refY="0.0"><path d="m0 0 5-5-17.5 5 17.5 5z" fill="#fff" fill-rule="evenodd" stroke="#fff" stroke-width="1pt" transform="matrix(-.8 0 0 -.8 -10 0)"/></marker><marker id="g" orient="auto" overflow="visible" refX="0.0" refY="0.0"><path d="m0 0 5-5-17.5 5 17.5 5z" fill="#fff" fill-rule="evenodd" stroke="#fff" stroke-width="1pt" transform="matrix(-.8 0 0 -.8 -10 0)"/></marker><marker id="h" orient="auto" overflow="visible" refX="0.0" refY="0.0"><path d="m0 0 5-5-17.5 5 17.5 5z" fill="#fff" fill-rule="evenodd" stroke="#fff" stroke-width="1pt" transform="matrix(-.8 0 0 -.8 -10 0)"/></marker><marker id="i" orient="auto" overflow="visible" refX="0.0" refY="0.0"><path d="m0 0 5-5-17.5 5 17.5 5z" fill-rule="evenodd" stroke="#000" stroke-width="1pt" transform="matrix(-.8 0 0 -.8 -10 0)"/></marker><marker id="j" orient="auto" overflow="visible" refX="0.0" refY="0.0"><path d="m0 0 5-5-17.5 5 17.5 5z" fill-rule="evenodd" stroke="#000" stroke-width="1pt" transform="matrix(-.8 0 0 -.8 -10 0)"/></marker><g transform="translate(211.40555 -93.715865)"><path d="m101.08962 576.63568-52.021989-42.29429 182.797319-224.84079 52.02199 42.29429z" fill="#333" stroke="#000" stroke-linecap="round" stroke-width="3"/><path d="m397.34994 419.31808.73718 67.0414-289.75522 3.18611-.73718-67.04141z" fill="#808080" stroke="#000" stroke-linecap="round" stroke-width="3"/><path d="m110.40435 279.7948 57.69097-34.15911 147.63686 249.34233-57.69098 34.15912z" fill="#e6e6e6" stroke="#000" stroke-linecap="round" stroke-width="3"/><g transform="translate(-54.545456 -317.81671)"><circle cx="215.34616" cy="616.84869" fill="#fff" r="27.320034" stroke="#000" stroke-linecap="round" stroke-width="3"/><text font-family="sans-serif" font-size="40" letter-spacing="0" word-spacing="0" x="202.63132" y="631.40924"><tspan x="202.63132" y="631.40924">0</tspan></text></g><g transform="translate(-3.409092 -240.544)"><circle cx="215.34616" cy="616.84869" fill="#fff" r="27.320034" stroke="#000" stroke-linecap="round" stroke-width="3"/><text font-family="sans-serif" font-size="40" letter-spacing="0" word-spacing="0" x="202.26999" y="631.42877"><tspan x="202.26999" y="631.42877">1</tspan></text></g><g transform="translate(44.034078 -164.40761)"><circle cx="215.34616" cy="616.84869" fill="#fff" r="27.320034" stroke="#000" stroke-linecap="round" stroke-width="3"/><text font-family="sans-serif" font-size="40" letter-spacing="0" word-spacing="0" x="203.15866" y="631.69244"><tspan x="203.15866" y="631.69244">2</tspan></text></g><g transform="translate(143.18183 -164.40761)"><circle cx="215.34616" cy="616.84869" fill="#fff" r="27.320034" stroke="#000" stroke-linecap="round" stroke-width="3"/><text font-family="sans-serif" font-size="40" letter-spacing="0" word-spacing="0" x="202.69968" y="631.40924"><tspan x="202.69968" y="631.40924">3</tspan></text></g><g transform="translate(-55.113634 -164.40761)"><circle cx="215.34616" cy="616.84869" fill="#fff" r="27.320034" stroke="#000" stroke-linecap="round" stroke-width="3"/><text font-family="sans-serif" font-size="40" letter-spacing="0" word-spacing="0" x="202.76804" y="631.42877"><tspan x="202.76804" y="631.42877">4</tspan></text></g><g transform="translate(-115.90908 -93.95307)"><circle cx="215.34616" cy="616.84869" fill="#fff" r="27.320034" stroke="#000" stroke-linecap="round" stroke-width="3"/><text font-family="sans-serif" font-size="40" letter-spacing="0" word-spacing="0" x="202.82663" y="631.14557"><tspan x="202.82663" y="631.14557">5</tspan></text></g><text font-family="sans-serif" font-size="40" letter-spacing="0" word-spacing="0" x="115.90909" y="247.04549"><tspan x="115.90909" y="247.04549">1</tspan></text><text font-family="sans-serif" font-size="40" letter-spacing="0" word-spacing="0" x="414.77274" y="472.0455"><tspan x="414.77274" y="472.0455">2</tspan></text><text font-family="sans-serif" font-size="40" letter-spacing="0" word-spacing="0" x="37.499992" y="592.5"><tspan x="37.499992" y="592.5">3</tspan></text><path d="m178.97728 326.59091 13.06818 21.02273" fill="none" marker-end="url(#j)" stroke="#000"/><path d="m228.4091 402.72727 13.06818 21.02273" fill="none" marker-end="url(#i)" stroke="#000"/><g fill-rule="evenodd" stroke="#fff"><path d="m322.13658 453.46363-24.74694.56703" fill="#fff" marker-end="url(#h)"/><path d="m222.13658 453.46363-24.74694.56703" fill="#fff" marker-end="url(#g)"/><path d="m122.5041 500.3489 13.82098-20.53566" fill="#fff" marker-end="url(#f)"/><path d="m178.38609 425.91469 11.67213-21.82874" marker-end="url(#e)"/></g><path d="m228.4091 402.72727 13.06818 21.02273" fill="none" marker-end="url(#d)" stroke="#000"/><path d="m275.8174 485.08914 13.06818 21.02273" fill="none" marker-end="url(#c)" stroke="#000"/><path d="m124.10587 453.8654-24.746945.56703" fill="#fff" fill-rule="evenodd" marker-end="url(#b)" stroke="#fff"/><path d="m239.01601 353.30283 13.82098-20.53566" fill="#fff" fill-rule="evenodd" marker-end="url(#a)" stroke="#fff"/></g></svg>